<svg width="19" height="19" viewBox="0 0 19 19" fill="none" xmlns="http://www.w3.org/2000/svg">
<g clip-path="url(#clip0)">
<path d="M16.5752 1.38411C14.7297 -0.461372 11.7272 -0.461372 9.88174 1.38411L2.83426 8.43156C2.61677 8.64905 2.61677 9.00141 2.83426 9.21891C3.05176 9.4364 3.40412 9.4364 3.62161 9.21891L10.6691 2.17146C12.0371 0.804503 14.4198 0.804503 15.7878 2.17146C17.1989 3.58247 17.1989 5.87873 15.7878 7.28974L5.94704 17.2414C5.10532 18.0831 3.63883 18.0831 2.79716 17.2414C1.9288 16.373 1.9288 14.9604 2.79716 14.092L12.2443 4.53348C12.5597 4.21812 13.1099 4.21812 13.4253 4.53348C13.751 4.85915 13.751 5.38933 13.4253 5.71504L4.37237 14.8793C4.1846 15.0671 4.1846 15.4789 4.37237 15.6667C4.58987 15.8842 4.94223 15.8842 5.15972 15.6667L14.2126 6.50235C14.9728 5.74217 14.9728 4.50628 14.2126 3.74613C13.4764 3.00991 12.1921 3.01099 11.457 3.74613L2.00981 13.3046C0.717435 14.597 0.717435 16.7363 2.00981 18.0287C2.64111 18.66 3.48008 19 4.37234 19C5.26459 19 6.10364 18.66 6.73439 18.0287L16.5752 8.07705C18.4207 6.23156 18.4207 3.22956 16.5752 1.38411Z" fill="#BDBDBD"/>
</g>
<defs>
<clipPath id="clip0">
<rect width="19" height="19" fill="white"/>
</clipPath>
</defs>
</svg>
